<?xml version="1.0" standalone="no"?>
<!DOCTYPE svg PUBLIC "-//W3C//DTD SVG 20010904//EN"
 "http://www.w3.org/TR/2001/REC-SVG-20010904/DTD/svg10.dtd">
<svg version="1.0" xmlns="http://www.w3.org/2000/svg"
 width="272.000000pt" height="272.000000pt" viewBox="0 0 272.000000 272.000000"
 preserveAspectRatio="xMidYMid meet">
<metadata>
Created by potrace 1.14, written by Peter Selinger 2001-2017
</metadata>
<g transform="translate(0.000000,272.000000) scale(0.100000,-0.100000)"
fill="#000000" stroke="none">
<path d="M1302 2549 c-20 -7 -228 -185 -572 -489 -53 -47 -229 -201 -392 -343
-320 -280 -336 -298 -325 -378 6 -47 44 -94 94 -115 19 -8 67 -14 118 -14 l85
0 0 -447 c0 -498 0 -498 69 -556 53 -44 88 -49 333 -45 253 3 248 2 312 82
l31 38 5 268 c5 252 6 270 26 297 41 56 70 63 274 63 208 0 236 -7 277 -69 22
-33 23 -41 23 -280 0 -267 6 -297 61 -348 52 -48 84 -53 318 -53 131 0 231 4
248 11 30 11 88 62 106 94 9 14 13 156 17 480 l5 460 97 5 c103 5 130 17 171
71 24 33 33 101 17 138 -6 16 -35 49 -63 73 -28 23 -95 81 -147 128 -53 47
-259 229 -460 405 -200 176 -411 362 -469 413 -58 52 -120 100 -138 108 -36
16 -87 17 -121 3z"/>
</g>
</svg>
